<svg width="1440" height="1024" viewBox="0 0 1440 1024" fill="none" xmlns="http://www.w3.org/2000/svg">
<g clip-path="url(#clip0_291_3451)">
<rect width="1440" height="1024" fill="url(#paint0_radial_291_3451)"/>
<g filter="url(#filter0_f_291_3451)">
<path fill-rule="evenodd" clip-rule="evenodd" d="M894.048 327.618C878.408 294.004 919.116 260.003 923.966 223.222C927.698 194.916 909.957 167.001 918.805 139.847C929.663 106.524 943.578 60.6469 978.358 56.2909C1015.33 51.6611 1035.24 99.9758 1065.63 121.458C1083.83 134.319 1108.1 138.217 1120.48 156.741C1132.52 174.764 1129.22 197.703 1131.01 219.314C1132.95 242.805 1144.02 268.409 1131.34 288.305C1118.6 308.303 1089.12 306.021 1068.4 317.558C1040.96 332.832 1022.02 364.804 990.682 366.612C955.112 368.665 909.063 359.891 894.048 327.618Z" fill="url(#paint1_linear_291_3451)" fill-opacity="0.8"/>
</g>
<g clip-path="url(#clip1_291_3451)">
<g filter="url(#filter1_f_291_3451)">
<path fill-rule="evenodd" clip-rule="evenodd" d="M128.821 1144.86C109.457 1103.24 159.858 1061.15 165.862 1015.61C170.483 980.562 148.518 946.001 159.473 912.382C172.916 871.124 190.144 814.325 233.205 808.931C278.973 803.199 303.632 863.017 341.261 889.614C363.788 905.537 393.836 910.363 409.159 933.298C424.066 955.612 419.991 984.013 422.202 1010.77C424.605 1039.85 438.314 1071.55 422.615 1096.19C406.835 1120.95 370.339 1118.12 344.681 1132.4C310.712 1151.31 287.26 1190.9 248.463 1193.14C204.424 1195.68 147.412 1184.82 128.821 1144.86Z" fill="url(#paint2_linear_291_3451)" fill-opacity="0.8"/>
</g>
<g filter="url(#filter2_f_291_3451)">
<path fill-rule="evenodd" clip-rule="evenodd" d="M194.438 -169.493C228.501 -138.726 198.514 -80.3048 210.749 -36.032C220.165 -1.9599 253.871 21.295 256.898 56.5239C260.614 99.757 266.907 158.777 229.361 180.54C189.454 203.672 143.416 158.211 98.3921 148.4C71.4387 142.526 41.8883 149.803 18.8334 134.662C-3.59721 119.931 -10.9239 92.1905 -23.3959 68.4167C-36.9537 42.5733 -61.9426 18.7324 -57.0961 -10.0726C-52.2244 -39.0269 -17.5173 -50.6607 0.536057 -73.8217C24.4376 -104.485 30.591 -150.082 65.4413 -167.277C105 -186.796 161.734 -199.032 194.438 -169.493Z" fill="url(#paint3_linear_291_3451)" fill-opacity="0.8"/>
</g>
</g>
<g filter="url(#filter3_f_291_3451)">
<path fill-rule="evenodd" clip-rule="evenodd" d="M1385.82 932.859C1366.46 891.241 1416.86 849.145 1422.86 803.607C1427.48 768.561 1405.52 734.001 1416.47 700.382C1429.92 659.124 1447.14 602.324 1490.2 596.931C1535.97 591.199 1560.63 651.017 1598.26 677.614C1620.79 693.536 1650.84 698.363 1666.16 721.298C1681.07 743.611 1676.99 772.012 1679.2 798.768C1681.6 827.853 1695.31 859.552 1679.62 884.185C1663.83 908.945 1627.34 906.119 1601.68 920.403C1567.71 939.314 1544.26 978.898 1505.46 981.137C1461.42 983.678 1404.41 972.815 1385.82 932.859Z" fill="url(#paint4_linear_291_3451)" fill-opacity="0.8"/>
</g>
</g>
<defs>
<filter id="filter0_f_291_3451" x="690.49" y="-144.02" width="646.85" height="710.914" filterUnits="userSpaceOnUse" color-interpolation-filters="sRGB">
<feFlood flood-opacity="0" result="BackgroundImageFix"/>
<feBlend mode="normal" in="SourceGraphic" in2="BackgroundImageFix" result="shape"/>
<feGaussianBlur stdDeviation="100" result="effect1_foregroundBlur_291_3451"/>
</filter>
<filter id="filter1_f_291_3451" x="-75.584" y="608.547" width="705.621" height="784.939" filterUnits="userSpaceOnUse" color-interpolation-filters="sRGB">
<feFlood flood-opacity="0" result="BackgroundImageFix"/>
<feBlend mode="normal" in="SourceGraphic" in2="BackgroundImageFix" result="shape"/>
<feGaussianBlur stdDeviation="100" result="effect1_foregroundBlur_291_3451"/>
</filter>
<filter id="filter2_f_291_3451" x="-257.711" y="-387.168" width="717.469" height="774.191" filterUnits="userSpaceOnUse" color-interpolation-filters="sRGB">
<feFlood flood-opacity="0" result="BackgroundImageFix"/>
<feBlend mode="normal" in="SourceGraphic" in2="BackgroundImageFix" result="shape"/>
<feGaussianBlur stdDeviation="100" result="effect1_foregroundBlur_291_3451"/>
</filter>
<filter id="filter3_f_291_3451" x="1181.42" y="396.547" width="705.621" height="784.939" filterUnits="userSpaceOnUse" color-interpolation-filters="sRGB">
<feFlood flood-opacity="0" result="BackgroundImageFix"/>
<feBlend mode="normal" in="SourceGraphic" in2="BackgroundImageFix" result="shape"/>
<feGaussianBlur stdDeviation="100" result="effect1_foregroundBlur_291_3451"/>
</filter>
<radialGradient id="paint0_radial_291_3451" cx="0" cy="0" r="1" gradientUnits="userSpaceOnUse" gradientTransform="translate(1689.43 369.778) rotate(147.172) scale(2279.79 1019.14)">
<stop stop-color="#3E25F7"/>
<stop offset="1" stop-color="#220AAA"/>
</radialGradient>
<linearGradient id="paint1_linear_291_3451" x1="1036.91" y1="275.548" x2="1076.81" y2="99.129" gradientUnits="userSpaceOnUse">
<stop stop-color="#FF669A"/>
<stop offset="0.498775" stop-color="#C200DB"/>
</linearGradient>
<linearGradient id="paint2_linear_291_3451" x1="305.703" y1="1080.39" x2="355.097" y2="861.969" gradientUnits="userSpaceOnUse">
<stop stop-color="#FF669A"/>
<stop offset="0.498775" stop-color="#C200DB"/>
</linearGradient>
<linearGradient id="paint3_linear_291_3451" x1="56.7153" y1="-41.1344" x2="96.4359" y2="179.252" gradientUnits="userSpaceOnUse">
<stop stop-color="#FF669A"/>
<stop offset="0.754174" stop-color="#C200DB"/>
</linearGradient>
<linearGradient id="paint4_linear_291_3451" x1="1562.7" y1="868.391" x2="1612.1" y2="649.969" gradientUnits="userSpaceOnUse">
<stop stop-color="#FF669A"/>
<stop offset="0.498775" stop-color="#C200DB"/>
</linearGradient>
<clipPath id="clip0_291_3451">
<rect width="1440" height="1024" fill="white"/>
</clipPath>
<clipPath id="clip1_291_3451">
<rect width="1440" height="1024" fill="white"/>
</clipPath>
</defs>
</svg>
