<svg width="68" height="64" viewBox="0 0 68 64" fill="none" xmlns="http://www.w3.org/2000/svg">
<path d="M30.6667 7.33327C28.887 7.33313 27.1253 7.68927 25.4855 8.3807C23.8456 9.07212 22.3608 10.0848 21.1185 11.3591C19.8762 12.6334 18.9015 14.1436 18.252 15.8005C17.6025 17.4574 17.2913 19.2275 17.3367 21.0066C17.3545 21.7591 17.1171 22.4954 16.6632 23.0958C16.2093 23.6962 15.5655 24.1253 14.8367 24.3133C12.4868 24.9288 10.441 26.3781 9.081 28.3909C7.72097 30.4037 7.13954 32.8424 7.44516 35.2523C7.75078 37.6622 8.92258 39.8786 10.742 41.4882C12.5614 43.0977 14.9042 43.9905 17.3333 43.9999H20.6667C21.5507 43.9999 22.3986 44.3511 23.0237 44.9762C23.6488 45.6014 24 46.4492 24 47.3333C24 48.2173 23.6488 49.0652 23.0237 49.6903C22.3986 50.3154 21.5507 50.6666 20.6667 50.6666H17.3333C13.4944 50.6674 9.7728 49.3429 6.79753 46.9169C3.82225 44.4909 1.77569 41.1122 1.00367 37.3516C0.231656 33.591 0.781516 29.6793 2.56034 26.2773C4.33917 22.8753 7.23788 20.1917 10.7667 18.6799C11.187 14.4668 12.9336 10.4958 15.7549 7.33874C18.5762 4.18165 22.3266 2.00138 26.4662 1.11188C30.6057 0.222374 34.9207 0.669537 38.7899 2.38898C42.659 4.10841 45.8827 7.01141 47.9967 10.6799C53.229 10.8704 58.178 13.105 61.7809 16.904C65.3839 20.703 67.3534 25.7634 67.2665 30.9984C67.1797 36.2335 65.0434 41.2258 61.3165 44.9032C57.5895 48.5806 52.5691 50.6498 47.3333 50.6666C46.4493 50.6666 45.6014 50.3154 44.9763 49.6903C44.3512 49.0652 44 48.2173 44 47.3333C44 46.4492 44.3512 45.6014 44.9763 44.9762C45.6014 44.3511 46.4493 43.9999 47.3333 43.9999C49.1287 43.9973 50.9051 43.6321 52.5559 42.9263C54.2067 42.2204 55.6979 41.1885 56.9402 39.8922C58.1825 38.596 59.1502 37.0623 59.7852 35.383C60.4203 33.7037 60.7097 31.9134 60.636 30.1195C60.5624 28.3256 60.1272 26.5651 59.3565 24.9436C58.5859 23.322 57.4957 21.8727 56.1513 20.6827C54.807 19.4927 53.2361 18.5865 51.533 18.0184C49.8299 17.4503 48.0295 17.232 46.24 17.3766C45.5456 17.4331 44.8509 17.2705 44.2536 16.9118C43.6563 16.5531 43.1864 16.0162 42.91 15.3766C41.8772 12.9871 40.1675 10.9522 37.9919 9.5229C35.8163 8.0936 33.2698 7.33243 30.6667 7.33327ZM31.6433 24.9766C32.2684 24.3517 33.1161 24.0006 34 24.0006C34.8839 24.0006 35.7316 24.3517 36.3567 24.9766L43.0233 31.6433C43.6305 32.2719 43.9665 33.1139 43.9589 33.9879C43.9513 34.8619 43.6008 35.698 42.9827 36.316C42.3647 36.934 41.5287 37.2846 40.6547 37.2922C39.7807 37.2998 38.9387 36.9638 38.31 36.3566L37.3333 35.3799V60.6666C37.3333 61.5507 36.9821 62.3985 36.357 63.0236C35.7319 63.6487 34.8841 63.9999 34 63.9999C33.1159 63.9999 32.2681 63.6487 31.643 63.0236C31.0179 62.3985 30.6667 61.5507 30.6667 60.6666V35.3799L29.69 36.3566C29.0613 36.9638 28.2193 37.2998 27.3453 37.2922C26.4713 37.2846 25.6353 36.934 25.0173 36.316C24.3992 35.698 24.0487 34.8619 24.0411 33.9879C24.0335 33.1139 24.3695 32.2719 24.9767 31.6433L31.6433 24.9766Z" fill="#3E25F7"/>
</svg>
